REM DIRINDEX 1\2,1\3,1\4,1\5,1\6
REM DIRNAME folder01,folder02,folder03,folder04,folder05,folder06
TITLE ""
FILE "Disc3Track22.mp3" MP3
  TRACK 01 AUDIO
    TITLE "3:cjc030_04683"
    INDEX 01 00:00:00
  TRACK 02 AUDIO
    TITLE "0:"
    INDEX 01 00:01:09
  TRACK 03 AUDIO
    TITLE "4:cjc030_04684"
    INDEX 01 00:01:17
  TRACK 04 AUDIO
    TITLE "0:"
    INDEX 01 00:02:30
  TRACK 05 AUDIO
    TITLE "5:cjc030_04685"
    INDEX 01 00:02:38
  TRACK 06 AUDIO
    TITLE "0:"
    INDEX 01 00:03:53
  TRACK 07 AUDIO
    TITLE "6:cjc030_04686"
    INDEX 01 00:03:64
  TRACK 08 AUDIO
    TITLE "0:"
    INDEX 01 00:05:63
  TRACK 09 AUDIO
    TITLE "3:cjc030_04687"
    INDEX 01 00:06:37
  TRACK 10 AUDIO
    TITLE "0:"
    INDEX 01 00:07:58
  TRACK 11 AUDIO
    TITLE "4:cjc030_04688"
    INDEX 01 00:07:68
  TRACK 12 AUDIO
    TITLE "0:"
    INDEX 01 00:08:70
  TRACK 13 AUDIO
    TITLE "5:cjc030_04689"
    INDEX 01 00:09:02
  TRACK 14 AUDIO
    TITLE "0:"
    INDEX 01 00:10:23
  TRACK 15 AUDIO
    TITLE "6:cjc030_04690"
    INDEX 01 00:10:35
  TRACK 16 AUDIO
    TITLE "0:"
    INDEX 01 00:13:02
  TRACK 17 AUDIO
    TITLE "3:cjc030_04691"
    INDEX 01 00:13:51
  TRACK 18 AUDIO
    TITLE "0:"
    INDEX 01 00:14:70
  TRACK 19 AUDIO
    TITLE "4:cjc030_04692"
    INDEX 01 00:15:05
  TRACK 20 AUDIO
    TITLE "0:"
    INDEX 01 00:16:32
  TRACK 21 AUDIO
    TITLE "5:cjc030_04693"
    INDEX 01 00:16:38
  TRACK 22 AUDIO
    TITLE "0:"
    INDEX 01 00:17:59
  TRACK 23 AUDIO
    TITLE "6:cjc030_04694"
    INDEX 01 00:17:72
  TRACK 24 AUDIO
    TITLE "0:"
    INDEX 01 00:22:30
  TRACK 25 AUDIO
    TITLE "3:cjc030_04695"
    INDEX 01 00:23:04
  TRACK 26 AUDIO
    TITLE "0:"
    INDEX 01 00:24:35
  TRACK 27 AUDIO
    TITLE "4:cjc030_04696"
    INDEX 01 00:24:45
  TRACK 28 AUDIO
    TITLE "0:"
    INDEX 01 00:25:43
  TRACK 29 AUDIO
    TITLE "5:cjc030_04697"
    INDEX 01 00:25:50
  TRACK 30 AUDIO
    TITLE "0:"
    INDEX 01 00:27:08
  TRACK 31 AUDIO
    TITLE "6:cjc030_04698"
    INDEX 01 00:27:20
  TRACK 32 AUDIO
    TITLE "0:"
    INDEX 01 00:31:59
  TRACK 33 AUDIO
    TITLE "3:cjc030_04699"
    INDEX 01 00:32:31
  TRACK 34 AUDIO
    TITLE "0:"
    INDEX 01 00:33:54
  TRACK 35 AUDIO
    TITLE "4:cjc030_04700"
    INDEX 01 00:33:62
  TRACK 36 AUDIO
    TITLE "0:"
    INDEX 01 00:34:73
  TRACK 37 AUDIO
    TITLE "5:cjc030_04701"
    INDEX 01 00:35:08
  TRACK 38 AUDIO
    TITLE "0:"
    INDEX 01 00:36:29
  TRACK 39 AUDIO
    TITLE "3:cjc030_04702"
    INDEX 01 00:37:10
  TRACK 40 AUDIO
    TITLE "0:"
    INDEX 01 00:38:41
  TRACK 41 AUDIO
    TITLE "4:cjc030_04703"
    INDEX 01 00:38:53
  TRACK 42 AUDIO
    TITLE "0:"
    INDEX 01 00:40:03
  TRACK 43 AUDIO
    TITLE "5:cjc030_04704"
    INDEX 01 00:40:11
  TRACK 44 AUDIO
    TITLE "0:"
    INDEX 01 00:41:45
  TRACK 45 AUDIO
    TITLE "3:cjc030_04705"
    INDEX 01 00:42:23
  TRACK 46 AUDIO
    TITLE "0:"
    INDEX 01 00:44:71
  TRACK 47 AUDIO
    TITLE "4:cjc030_04706"
    INDEX 01 00:45:02
  TRACK 48 AUDIO
    TITLE "0:"
    INDEX 01 00:46:62
  TRACK 49 AUDIO
    TITLE "5:cjc030_04707"
    INDEX 01 00:46:68
  TRACK 50 AUDIO
    TITLE "0:"
    INDEX 01 00:49:45
  TRACK 51 AUDIO
    TITLE "6:cjc030_04708"
    INDEX 01 00:49:55
  TRACK 52 AUDIO
    TITLE "0:"
    INDEX 01 00:55:30
  TRACK 53 AUDIO
    TITLE "3:cjc030_04709"
    INDEX 01 00:56:04
  TRACK 54 AUDIO
    TITLE "0:"
    INDEX 01 00:58:28
  TRACK 55 AUDIO
    TITLE "4:cjc030_04710"
    INDEX 01 00:58:38
  TRACK 56 AUDIO
    TITLE "0:"
    INDEX 01 01:00:41
  TRACK 57 AUDIO
    TITLE "5:cjc030_04711"
    INDEX 01 01:00:47
  TRACK 58 AUDIO
    TITLE "0:"
    INDEX 01 01:03:02
  TRACK 59 AUDIO
    TITLE "6:cjc030_04712"
    INDEX 01 01:03:14
  TRACK 60 AUDIO
    TITLE "0:"
    INDEX 01 01:06:32
  TRACK 61 AUDIO
    TITLE "3:cjc030_04713"
    INDEX 01 01:07:04
  TRACK 62 AUDIO
    TITLE "0:"
    INDEX 01 01:08:27
  TRACK 63 AUDIO
    TITLE "4:cjc030_04714"
    INDEX 01 01:08:36
  TRACK 64 AUDIO
    TITLE "0:"
    INDEX 01 01:09:34
  TRACK 65 AUDIO
    TITLE "5:cjc030_04715"
    INDEX 01 01:09:42
  TRACK 66 AUDIO
    TITLE "0:"
    INDEX 01 01:10:65
